<svg width="67" height="68" viewBox="0 0 67 68" fill="none" xmlns="http://www.w3.org/2000/svg">
<path d="M6.27051 19.5344C6.27051 16.1105 9.04615 13.3348 12.4701 13.3348H55.1781C58.6019 13.3348 61.3777 16.1105 61.3777 19.5344V34.9313C60.1998 33.4564 58.8061 32.1614 57.2447 31.094V19.5344C57.2447 18.3931 56.3194 17.4679 55.1781 17.4679H12.4701C11.3288 17.4679 10.4035 18.3931 10.4035 19.5344V48.4657C10.4035 49.6069 11.3288 50.5322 12.4701 50.5322H28.0035C28.2966 51.9763 28.754 53.3608 29.3555 54.6652H12.4701C9.04615 54.6652 6.27051 51.8895 6.27051 48.4657V19.5344Z" fill="white"/>
<path d="M51.0446 27.8005H16.6027C15.4614 27.8005 14.5361 26.8752 14.5361 25.7339C14.5361 24.5926 15.4614 23.6674 16.6027 23.6674H51.0446C52.1859 23.6674 53.1112 24.5926 53.1112 25.7339C53.1112 26.8752 52.1859 27.8005 51.0446 27.8005Z" fill="white"/>
<path d="M30.9176 36.0666C31.9423 34.5674 33.1767 33.223 34.5789 32.076C34.345 31.984 34.0901 31.9335 33.8236 31.9335H16.6027C15.4614 31.9335 14.5361 32.8588 14.5361 34.0001C14.5361 35.1413 15.4614 36.0666 16.6027 36.0666H30.9176Z" fill="white"/>
<path fill-rule="evenodd" clip-rule="evenodd" d="M57.6754 43.0418C57.6754 46.3945 56.1898 49.4006 53.8411 51.4373V59.4871C53.8411 60.3063 53.3572 61.048 52.6075 61.3781C51.8581 61.7085 50.9841 61.5647 50.3798 61.0119L46.5713 57.5286L42.7629 61.0119C42.1584 61.5647 41.2844 61.7085 40.5349 61.3781C39.7854 61.048 39.3016 60.3063 39.3016 59.4871V51.4442C36.948 49.4075 35.459 46.3983 35.459 43.0418C35.459 36.9067 40.4324 31.9335 46.5672 31.9335C52.702 31.9335 57.6754 36.9067 57.6754 43.0418ZM46.5672 36.0666C42.7149 36.0666 39.592 39.1895 39.592 43.0418C39.592 46.8938 42.7149 50.0167 46.5672 50.0167C50.4195 50.0167 53.5424 46.8938 53.5424 43.0418C53.5424 39.1895 50.4195 36.0666 46.5672 36.0666Z" fill="white"/>
</svg>
