<svg width="67" height="68" viewBox="0 0 67 68" fill="none" xmlns="http://www.w3.org/2000/svg">
<path fill-rule="evenodd" clip-rule="evenodd" d="M6.2791 34.3458C6.46407 49.4025 18.727 61.5539 33.828 61.5539C49.0442 61.5539 61.3791 49.2162 61.3791 34.0006C61.3791 18.8247 49.1089 6.5121 33.9478 6.44746C33.9079 6.44677 33.8676 6.44641 33.8274 6.44641C33.7872 6.44641 33.747 6.44677 33.7067 6.44746C18.6629 6.51224 6.46584 18.6365 6.27916 33.6509C6.27343 33.7661 6.27051 33.8821 6.27051 33.9989C6.27051 34.1152 6.2734 34.2309 6.2791 34.3458ZM25.5003 25.6709C25.0976 28.2531 24.8746 31.057 24.8746 33.9989C24.8746 36.9411 25.0976 39.7447 25.5003 42.327C28.0811 42.729 30.883 42.9519 33.823 42.9519C36.7665 42.9519 39.5718 42.7284 42.1549 42.3256C42.5575 39.7436 42.7804 36.9403 42.7804 33.9989C42.7804 31.0573 42.5575 28.2541 42.1549 25.6723C39.5718 25.2693 36.7665 25.046 33.823 25.046C30.883 25.046 28.081 25.2687 25.5003 25.6709ZM21.2018 26.5555C20.9009 28.9285 20.7415 31.4268 20.7415 33.9989C20.7415 36.571 20.9009 39.0693 21.2018 41.4422C19.5188 41.0036 17.9814 40.4817 16.6223 39.894C14.4705 38.9638 12.8601 37.909 11.8172 36.843C10.8654 35.8701 10.4679 34.9806 10.4108 34.1984C10.4103 34.1325 10.41 34.0667 10.41 34.0006C10.41 33.9333 10.4103 33.8661 10.4109 33.7989C10.468 33.0169 10.8656 32.1275 11.8172 31.1548C12.8601 30.0888 14.4705 29.0343 16.6223 28.1038C17.9814 27.5162 19.5188 26.9944 21.2018 26.5555ZM26.3855 21.3725C28.7567 21.0721 31.2531 20.9129 33.823 20.9129C36.3965 20.9129 38.8959 21.0725 41.2699 21.3737C40.8313 19.6923 40.3097 18.1562 39.7225 16.7982C38.7923 14.6464 37.7375 13.036 36.6718 11.9931C35.6443 10.9879 34.7097 10.6009 33.8966 10.5803L33.828 10.5802L33.7582 10.5803C32.9454 10.601 32.0108 10.988 30.9833 11.9931C29.9173 13.036 28.8628 14.6464 27.9324 16.7982C27.3454 18.1558 26.8241 19.6915 26.3855 21.3725ZM46.4536 26.558C46.7542 28.9301 46.9134 31.4276 46.9134 33.9989C46.9134 36.5702 46.7542 39.0677 46.4536 41.4398C48.133 41.0016 49.6671 40.4806 51.0236 39.894C53.1755 38.9638 54.786 37.909 55.8289 36.843C56.8625 35.7863 57.2425 34.828 57.2425 33.9989C57.2425 33.1698 56.8625 32.2115 55.8289 31.1548C54.786 30.0888 53.1755 29.0343 51.0236 28.1038C49.6671 27.5173 48.133 26.9963 46.4536 26.558ZM41.2699 46.6242C38.8959 46.9254 36.3965 47.0849 33.823 47.0849C31.2531 47.0849 28.7567 46.9257 26.3855 46.6253C26.8241 48.3064 27.3454 49.8419 27.9324 51.1995C28.8628 53.3514 29.9173 54.962 30.9833 56.0049C32.04 57.0384 32.9983 57.4184 33.8274 57.4184C34.6565 57.4184 35.6151 57.0384 36.6718 56.0046C37.7375 54.962 38.7923 53.3514 39.7225 51.1995C40.3097 49.8417 40.8313 48.3056 41.2699 46.6242ZM21.9571 45.8706C19.3865 45.3121 17.0339 44.5748 14.9821 43.6876C13.854 43.1999 12.797 42.6584 11.835 42.0636C14.1998 48.5128 19.32 53.6328 25.7691 55.9969C25.1718 55.0322 24.6282 53.972 24.1388 52.8398C23.2523 50.7895 22.5154 48.4389 21.9571 45.8706ZM45.6983 45.8684C48.2652 45.3102 50.6147 44.5737 52.6639 43.6876C53.7971 43.1977 54.8585 42.6535 55.824 42.0556C53.4602 48.5089 48.338 53.6325 41.8857 55.9974C42.4831 55.0325 43.0267 53.972 43.5163 52.8398C44.403 50.789 45.1401 48.4378 45.6983 45.8684ZM55.8223 25.9414C54.8574 25.3437 53.7963 24.7998 52.6639 24.3102C50.6147 23.4241 48.2652 22.6875 45.6983 22.1293C45.1401 19.5601 44.403 17.2087 43.5163 15.158C43.0275 14.0274 42.4845 12.9683 41.8882 12.0046C48.338 14.3694 53.4582 19.4908 55.8223 25.9414ZM21.9571 22.1272C19.3865 22.6857 17.0338 23.4231 14.9821 24.3102C13.8546 24.7976 12.7981 25.3389 11.8365 25.9334C14.2016 19.487 19.32 14.3691 25.7666 12.005C25.1703 12.9686 24.6275 14.0276 24.1388 15.158C23.2523 17.2082 22.5154 19.5588 21.9571 22.1272Z" fill="white"/>
</svg>
