<svg width="67" height="68" viewBox="0 0 67 68" fill="none" xmlns="http://www.w3.org/2000/svg">
<path d="M30.849 29.6959C30.849 28.0524 32.1812 26.7201 33.8245 26.7201C35.4681 26.7201 36.8003 28.0524 36.8003 29.6959C36.8003 30.7032 36.3013 31.5946 35.5278 32.1363C34.782 32.6584 33.8807 33.3558 33.1555 34.2317C32.422 35.1173 31.758 36.3217 31.758 37.8137C31.758 38.955 32.6832 39.8802 33.8245 39.8802C34.9658 39.8802 35.891 38.955 35.891 37.8137C35.891 37.6071 35.9756 37.3062 36.3387 36.8678C36.7096 36.4198 37.2527 35.974 37.8983 35.5218C39.7292 34.24 40.9333 32.1087 40.9333 29.6959C40.9333 25.7698 37.7506 22.5871 33.8245 22.5871C29.8984 22.5871 26.7158 25.7698 26.7158 29.6959C26.7158 30.8371 27.641 31.7624 28.7824 31.7624C29.9237 31.7624 30.849 30.8371 30.849 29.6959Z" fill="white"/>
<path d="M33.8224 41.28C32.6811 41.28 31.7559 42.2053 31.7559 43.3465C31.7559 44.4878 32.6811 45.4131 33.8224 45.4131C34.9637 45.4131 35.8908 44.4878 35.8908 43.3465C35.8908 42.2053 34.9637 41.28 33.8224 41.28Z" fill="white"/>
<path fill-rule="evenodd" clip-rule="evenodd" d="M33.8241 6.44647C18.6067 6.44647 6.27051 18.7826 6.27051 34.0001C6.27051 49.2174 18.6067 61.5537 33.8241 61.5537C49.0414 61.5537 61.3777 49.2174 61.3777 34.0001C61.3777 18.7826 49.0414 6.44647 33.8241 6.44647ZM10.4035 34.0001C10.4035 21.0653 20.8893 10.5795 33.8241 10.5795C46.7589 10.5795 57.2447 21.0653 57.2447 34.0001C57.2447 46.9348 46.7589 57.4206 33.8241 57.4206C20.8893 57.4206 10.4035 46.9348 10.4035 34.0001Z" fill="white"/>
</svg>
