<svg width="67" height="68" viewBox="0 0 67 68" fill="none" xmlns="http://www.w3.org/2000/svg">
<path fill-rule="evenodd" clip-rule="evenodd" d="M35.8909 9.89068C35.8909 8.74938 34.9656 7.82416 33.8244 7.82416C32.6831 7.82416 31.7578 8.74938 31.7578 9.89068V13.3349H13.848C10.4241 13.3349 7.64844 16.1105 7.64844 19.5344V42.2662C7.64844 45.69 10.4241 48.4657 13.848 48.4657H22.5478L19.471 57.4399C19.1008 58.5195 19.676 59.6946 20.7556 60.0649C21.8352 60.435 23.0104 59.8599 23.3806 58.7801L26.917 48.4657H31.7578V59.4871C31.7578 60.6284 32.6831 61.5537 33.8244 61.5537C34.9656 61.5537 35.8909 60.6284 35.8909 59.4871V48.4657H40.7329L44.2691 58.7801C44.6394 59.8599 45.8146 60.435 46.8941 60.0649C47.9739 59.6946 48.549 58.5195 48.1789 57.4399L45.102 48.4657H53.8007C57.2245 48.4657 60.0003 45.69 60.0003 42.2662V19.5344C60.0003 16.1105 57.2245 13.3349 53.8007 13.3349H35.8909V9.89068ZM53.8007 44.3327C54.942 44.3327 55.8672 43.4074 55.8672 42.2662V19.5344C55.8672 18.3931 54.942 17.4679 53.8007 17.4679H13.848C12.7067 17.4679 11.7815 18.3931 11.7815 19.5344V42.2662C11.7815 43.4074 12.7067 44.3327 13.848 44.3327H53.8007Z" fill="white"/>
</svg>
